<svg width="75" height="75" viewBox="0 0 75 75" fill="none" xmlns="http://www.w3.org/2000/svg">
<rect width="75" height="75" rx="10" fill="#4169E1"/>
<path d="M23.8738 30.5881C23.4412 30.7117 23.0485 30.9461 22.7343 31.2681C22.4202 31.5901 22.1955 31.9885 22.0827 32.424C21.9698 32.8595 21.9726 33.3169 22.0907 33.751C22.2089 34.185 22.4383 34.5807 22.7564 34.8989L27.164 39.3015V47.8094H35.6808L40.1182 52.2404C40.3563 52.4806 40.6396 52.6714 40.9518 52.8018C41.2639 52.9321 41.5988 52.9995 41.937 53C42.1594 52.9996 42.3807 52.9709 42.5958 52.9147C43.0311 52.8051 43.4299 52.5827 43.7519 52.27C44.0739 51.9573 44.3079 51.5652 44.4302 51.1333L53 22L23.8738 30.5881ZM24.592 33.0723L46.5888 26.5873L29.7502 43.3991V38.2318L24.592 33.0723ZM41.9538 50.4138L36.7517 45.2258H31.5845L48.4206 28.4036L41.9538 50.4138Z" fill="white"/>
</svg>
