<svg width="25" height="25" viewBox="0 0 25 25" fill="none" xmlns="http://www.w3.org/2000/svg">
<path d="M21.4199 25H3.6229C3.12679 24.9799 2.63952 24.8621 2.189 24.6536C1.73848 24.4451 1.33354 24.15 0.997355 23.7851C0.661172 23.4203 0.40034 22.9927 0.229795 22.5271C0.0592495 22.0614 -0.0176899 21.5669 0.00341191 21.0714V16.7857C0.00341191 16.5016 0.11646 16.229 0.317678 16.0281C0.51891 15.8271 0.791817 15.7143 1.07638 15.7143C1.36096 15.7143 1.63387 15.8271 1.83509 16.0281C2.03632 16.229 2.14935 16.5016 2.14935 16.7857V21.0714C2.11243 21.4956 2.24041 21.9177 2.50678 22.2501C2.77314 22.5827 3.15745 22.8 3.57998 22.8571H21.4199C21.8425 22.8 22.2268 22.5827 22.4932 22.2501C22.7596 21.9177 22.8875 21.4956 22.8505 21.0714V16.7857C22.8505 16.5016 22.9636 16.229 23.1649 16.0281C23.366 15.8271 23.639 15.7143 23.9235 15.7143C24.2081 15.7143 24.481 15.8271 24.6822 16.0281C24.8835 16.229 24.9965 16.5016 24.9965 16.7857V21.0714C25.0394 22.0649 24.6876 23.0349 24.0178 23.7706C23.348 24.5064 22.4143 24.9481 21.4199 25Z" fill="#4169E1"/>
<path d="M12.5214 17.8571C12.3805 17.8577 12.2407 17.8303 12.1105 17.7763C11.9803 17.7224 11.8622 17.643 11.7632 17.5429L6.04066 11.8286C5.85113 11.6254 5.74796 11.3567 5.75285 11.0791C5.75776 10.8016 5.87036 10.5369 6.06696 10.3404C6.26354 10.1441 6.52876 10.0317 6.80673 10.0269C7.08471 10.022 7.35372 10.125 7.55713 10.3143L12.5214 15.2714L17.4857 10.3143C17.6891 10.125 17.9581 10.022 18.2361 10.0269C18.514 10.0317 18.7793 10.1441 18.9758 10.3404C19.1724 10.5369 19.285 10.8016 19.29 11.0791C19.2949 11.3567 19.1917 11.6254 19.0022 11.8286L13.2796 17.5429C13.1806 17.643 13.0625 17.7224 12.9323 17.7763C12.8021 17.8303 12.6623 17.8577 12.5214 17.8571Z" fill="#4169E1"/>
<path d="M12.5214 17.8571C12.238 17.8534 11.9672 17.7394 11.7667 17.5393C11.5663 17.3391 11.4522 17.0687 11.4484 16.7857V1.07143C11.4484 0.787271 11.5615 0.514743 11.7627 0.313814C11.9639 0.112886 12.2369 0 12.5214 0C12.806 0 13.0789 0.112886 13.2801 0.313814C13.4814 0.514743 13.5944 0.787271 13.5944 1.07143V16.7857C13.5907 17.0687 13.4765 17.3391 13.2761 17.5393C13.0756 17.7394 12.8048 17.8534 12.5214 17.8571Z" fill="#4169E1"/>
</svg>
